<?xml version="1.0" standalone="no"?><svg xmlns="http://www.w3.org/2000/svg" viewBox="0 0 1440 320"><path fill="#a967e7da" fill-opacity="0.8" d="M0,64L34.3,74.7C68.6,85,137,107,206,117.3C274.3,128,343,128,411,154.7C480,181,549,235,617,245.3C685.7,256,754,224,823,213.3C891.4,203,960,213,1029,224C1097.1,235,1166,245,1234,213.3C1302.9,181,1371,107,1406,69.3L1440,32L1440,320L1405.7,320C1371.4,320,1303,320,1234,320C1165.7,320,1097,320,1029,320C960,320,891,320,823,320C754.3,320,686,320,617,320C548.6,320,480,320,411,320C342.9,320,274,320,206,320C137.1,320,69,320,34,320L0,320Z"></path></svg>